HIERARCHY
ROOT Hips
{
	OFFSET -3.958830 18.904000 13.208200
	CHANNELS 6 Xposition Yposition Zposition Zrotation Yrotation Xrotation 
	JOINT LHipJoint
	{
		OFFSET 0.000000 0.000000 0.000000
		CHANNELS 3 Zrotation Yrotation Xrotation
		JOINT LeftUpLeg
		{
			OFFSET 1.800000 -1.400000 0.085000
			CHANNELS 3 Zrotation Yrotation Xrotation
			JOINT LeftLeg
			{
				OFFSET 2.215000 -6.000000 0.000000
				CHANNELS 3 Zrotation Yrotation Xrotation
				JOINT LeftFoot
				{
					OFFSET 2.500000 -6.900000 0.000000
					CHANNELS 3 Zrotation Yrotation Xrotation
					JOINT LeftToeBase
					{
						OFFSET 0.200000 -0.500000 1.950000
						CHANNELS 3 Zrotation Yrotation Xrotation
						End Site
						{
							OFFSET 0.000000 0.000000 0.000000
						}
					}
				}
			}
		}
	}
	JOINT RHipJoint
	{
		OFFSET 0.000000 0.000000 0.000000
		CHANNELS 3 Zrotation Yrotation Xrotation
		JOINT RightUpLeg
		{
			OFFSET -1.800000 -1.400000 0.085000
			CHANNELS 3 Zrotation Yrotation Xrotation
			JOINT RightLeg
			{
				OFFSET -2.215000 -6.000000 0.000000
				CHANNELS 3 Zrotation Yrotation Xrotation
				JOINT RightFoot
				{
					OFFSET -2.500000 -6.900000 0.000000
					CHANNELS 3 Zrotation Yrotation Xrotation
					JOINT RightToeBase
					{
						OFFSET -0.200000 -0.500000 1.950000
						CHANNELS 3 Zrotation Yrotation Xrotation
						End Site
						{
							OFFSET 0.000000 0.000000 0.000000
						}
					}
				}
			}
		}
	}
	JOINT LowerBack
	{
		OFFSET 0.000000 0.000000 0.000000
		CHANNELS 3 Zrotation Yrotation Xrotation
		JOINT Spine
		{
			OFFSET -0.087000 1.940000 -0.288900
			CHANNELS 3 Zrotation Yrotation Xrotation
			JOINT Spine1
			{
				OFFSET 0.000000 1.950000 0.060000
				CHANNELS 3 Zrotation Yrotation Xrotation
				JOINT Neck
				{
					OFFSET 0.000000 0.000000 0.000000
					CHANNELS 3 Zrotation Yrotation Xrotation
					JOINT Neck1
					{
						OFFSET 0.000000 1.600000 0.340000
						CHANNELS 3 Zrotation Yrotation Xrotation
						JOINT Head
						{
							OFFSET 0.000000 1.667000 -0.240000
							CHANNELS 3 Zrotation Yrotation Xrotation
							End Site
							{
								OFFSET 0.000000 0.000000 0.000000
							}
						}
					}
				}
				JOINT LeftShoulder
				{
					OFFSET 0.000000 0.000000 0.000000
					CHANNELS 3 Zrotation Yrotation Xrotation
					JOINT LeftArm
					{
						OFFSET 2.700000 1.550000 -0.730000
						CHANNELS 3 Zrotation Yrotation Xrotation
						JOINT LeftForeArm
						{
							OFFSET 5.450000 0.000000 0.000000
							CHANNELS 3 Zrotation Yrotation Xrotation
							JOINT LeftHand
							{
								OFFSET 3.450000 0.000000 0.000000
								CHANNELS 3 Zrotation Yrotation Xrotation
								JOINT LeftHandIndex1
								{
									OFFSET 0.750000 0.000000 0.000000
									CHANNELS 3 Zrotation Yrotation Xrotation
									End Site
									{
										OFFSET 0.000000 0.000000 0.000000
									}
								}
							}
						}
					}
				}
				JOINT RightShoulder
				{
					OFFSET 0.000000 0.000000 0.000000
					CHANNELS 3 Zrotation Yrotation Xrotation
					JOINT RightArm
					{
						OFFSET -2.700000 1.550000 -0.730000
						CHANNELS 3 Zrotation Yrotation Xrotation
						JOINT RightForeArm
						{
							OFFSET -5.450000 0.000000 0.000000
							CHANNELS 3 Zrotation Yrotation Xrotation
							JOINT RightHand
							{
								OFFSET -3.450000 0.000000 0.000000
								CHANNELS 3 Zrotation Yrotation Xrotation
								JOINT RightHandIndex1
								{
									OFFSET -0.750000 0.000000 0.000000
									CHANNELS 3 Zrotation Yrotation Xrotation
									End Site
									{
										OFFSET 0.000000 0.000000 0.000000
									}
								}
							}
						}
					}
				}
			}
		}
	}
}
MOTION
Frames: 8
Frame Time: 0.016667
-0.096910 17.167810 -3.838200 -3.335389 14.043857 -9.946957 -14.983066 13.390665 3.183831 3.128961 -1.081520 -7.503329 -11.069034 6.500682 12.074871 -0.227035 4.253758 3.249937 0.546750 0.383870 0.193040 18.274298 -11.124782 2.977508 -5.448721 4.704943 -14.324473 12.253505 -11.070765 37.294520 -0.950885 -6.300240 2.290308 0.145410 0.115370 0.028530 -4.255073 -1.097437 -7.857162 16.926522 -11.483598 38.839869 -23.042016 -2.994902 11.039735 13.809677 -9.534583 -10.756560 -18.844973 6.368217 39.369062 6.979010 -6.211660 -22.845960 -22.593574 -7.772770 1.544323 -40.693947 -8.743913 -12.887118 -5.443115 -63.079928 -2.706579 -3.151101 3.208955 0.582110 -0.164660 0.016650 0.158810 -5.049358 16.793140 6.854081 3.518327 8.230225 -15.280430 -57.886223 46.381474 -25.265307 1.633270 -1.313506 -0.036890 0.383500 0.015910 -0.126150 
-0.092220 17.160890 -3.837730 -3.368441 14.136489 -10.081273 -14.970577 13.365149 3.181100 3.263198 -1.093988 -7.379510 -11.272881 6.562153 12.133047 -0.217847 4.288402 3.234642 0.556330 0.388370 0.205570 18.287081 -11.140831 2.980376 -5.484035 4.747501 -14.349931 12.241371 -11.130306 37.522806 -0.961980 -6.338642 2.272869 0.146260 0.107640 0.034920 -4.293587 -1.021866 -7.857148 17.121383 -11.748223 38.931250 -23.608359 -3.117428 10.935633 13.948255 -9.499060 -10.741404 -18.768172 6.354347 39.390515 7.006410 -6.207440 -22.820720 -22.924302 -7.787301 1.499405 -40.122126 -8.488487 -13.020303 -5.733456 -62.372720 -2.495120 -3.137693 3.227129 0.583760 -0.167570 0.021240 0.156780 -5.052557 16.725194 6.905110 2.723128 7.854472 -15.014714 -55.627780 45.774471 -23.586047 1.655190 -1.359397 -0.030400 0.374250 0.010350 -0.128560 
-0.084300 17.147250 -3.836900 -3.453652 14.267125 -10.384920 -14.954040 13.330783 3.177409 3.595317 -1.098763 -7.131156 -11.710747 6.707869 12.267137 -0.204623 4.380073 3.199084 0.558630 0.385830 0.209060 18.304022 -11.156284 2.986764 -5.514867 4.852727 -14.345431 12.241415 -11.247072 37.953388 -0.981607 -6.416734 2.238028 0.146730 0.106820 0.044050 -4.344134 -0.922541 -7.858466 17.371521 -12.201708 39.210869 -24.552605 -3.313944 10.731490 14.250291 -9.463982 -10.744984 -18.660998 6.390906 39.335439 7.018740 -6.178760 -22.647870 -23.649958 -7.817267 1.394369 -39.079620 -8.010689 -13.290322 -6.270258 -60.978277 -2.141223 -3.118592 3.255919 0.587060 -0.167300 0.024360 0.154570 -5.035385 16.682393 7.047434 1.000335 7.164900 -14.427008 -51.148091 44.254003 -20.325084 1.696632 -1.439135 -0.028650 0.368490 0.013480 -0.130040 
-0.076500 17.127710 -3.835730 -3.522341 14.502153 -10.742309 -14.943203 13.303344 3.179110 3.999712 -1.105745 -6.847592 -12.263488 6.904647 12.461183 -0.194642 4.503766 3.151491 0.552570 0.373540 0.207230 18.314385 -11.164652 2.991705 -5.553179 4.976563 -14.332753 12.202057 -11.377492 38.484440 -0.999564 -6.508952 2.199261 0.145590 0.109080 0.048050 -4.380375 -0.844567 -7.864609 17.430236 -12.659783 39.575130 -25.513839 -3.493314 10.501020 14.633667 -9.309129 -10.811838 -18.288732 6.378153 39.311187 6.936060 -6.049940 -22.245220 -24.663351 -7.840197 1.260952 -37.895836 -7.345791 -13.706426 -6.857518 -59.296291 -1.817594 -3.093819 3.289924 0.592250 -0.163600 0.020290 0.147480 -4.915664 16.625902 7.378371 -1.312650 6.394043 -13.409516 -45.483417 40.950386 -16.126166 1.764293 -1.534721 -0.035160 0.365600 0.025250 -0.137390 
-0.069730 17.106730 -3.831580 -3.585941 14.786694 -11.026154 -14.922582 13.251507 3.177131 4.403118 -1.138378 -6.631400 -12.856083 7.113737 12.704918 -0.194273 4.636897 3.102560 0.546550 0.354590 0.211630 18.335554 -11.189908 2.998016 -5.590549 5.110050 -14.377276 12.122782 -11.489314 38.986564 -1.015303 -6.592721 2.166197 0.143000 0.114550 0.053520 -4.446570 -0.701250 -7.871825 17.619332 -13.098357 39.709563 -26.455312 -3.592058 10.380946 14.842624 -9.010405 -10.926594 -17.693743 6.170218 39.488174 6.895170 -5.988400 -21.888140 -25.681015 -8.026465 1.224938 -36.822317 -6.605717 -14.167377 -7.260688 -57.275249 -1.645414 -3.067872 3.311839 0.606600 -0.157370 0.016720 0.139640 -4.450215 16.598245 7.855812 -4.162232 5.620523 -11.995857 -39.625687 36.079385 -11.886055 1.847382 -1.599750 -0.048540 0.366980 0.036940 -0.149560 
-0.065320 17.086620 -3.825170 -3.650717 15.062295 -11.229452 -14.899209 13.192513 3.169421 4.785758 -1.162707 -6.485836 -13.377708 7.313237 12.967496 -0.203388 4.757533 3.056909 0.530060 0.330970 0.199670 18.360391 -11.221721 3.006524 -5.585076 5.257002 -14.464286 11.992950 -11.553766 39.433243 -1.024702 -6.659318 2.141290 0.139600 0.126930 0.050070 -4.521141 -0.534686 -7.877975 17.828549 -13.436044 39.683642 -27.236334 -3.591102 10.349668 14.914242 -8.700220 -11.091693 -17.090212 5.991391 39.740262 7.031730 -5.932320 -21.535150 -26.498224 -8.202684 1.223035 -36.139484 -5.891702 -14.610532 -7.198299 -55.316832 -1.733030 -3.048074 3.320281 0.622450 -0.151190 0.007600 0.132480 -3.889331 16.574944 8.417173 -6.891926 5.111039 -10.464516 -34.619599 30.361787 -8.457839 1.929845 -1.613398 -0.069830 0.377630 0.058190 -0.160170 
-0.063500 17.071850 -3.818100 -3.692246 15.255844 -11.507798 -14.889186 13.160505 3.168568 5.149224 -1.154271 -6.215402 -13.812595 7.476425 13.092683 -0.200588 4.865456 3.016994 0.528010 0.316430 0.207780 18.370544 -11.242863 3.005172 -5.565302 5.346430 -14.315303 11.864637 -11.545916 39.645954 -1.030737 -6.688222 2.129480 0.138010 0.128430 0.053320 -4.553507 -0.439736 -7.881851 17.748462 -13.627839 39.845681 -27.695430 -3.507950 10.508441 15.009893 -8.461558 -11.366593 -16.640824 5.797246 39.896158 7.182790 -5.918150 -21.356690 -27.057818 -8.327478 1.170859 -35.889454 -5.373287 -15.075154 -6.651482 -53.629512 -2.065210 -3.028065 3.322059 0.637530 -0.149760 0.007450 0.126610 -3.574791 16.676365 9.095658 -9.205818 4.742714 -9.053446 -30.544547 24.251159 -5.901872 2.021076 -1.597740 -0.081330 0.378690 0.064030 -0.171010 
-0.063720 17.062710 -3.811050 -3.711779 15.347477 -11.856414 -14.880123 13.133833 3.169315 5.509658 -1.108369 -5.794909 -14.211973 7.608537 13.046964 -0.192252 4.961388 2.983030 0.521790 0.299130 0.206440 18.379962 -11.266160 2.995701 -5.565129 5.390731 -13.995553 11.744500 -11.504614 39.721745 -1.033939 -6.699338 2.124898 0.132310 0.131350 0.053070 -4.579507 -0.360612 -7.882417 17.584578 -13.767736 40.222426 -27.944331 -3.428487 10.641121 14.958238 -8.366666 -11.736466 -16.561484 5.739051 39.957938 7.698940 -5.993990 -21.232680 -27.295337 -8.497377 1.166215 -36.015878 -4.832085 -15.535915 -5.953427 -52.330389 -2.480885 -3.011303 3.319353 0.652830 -0.152900 0.005440 0.121640 -3.255440 16.906180 9.798279 -11.499864 3.911475 -7.763512 -26.903259 19.014004 -4.021272 2.099426 -1.547341 -0.091730 0.380070 0.072970 -0.178390 
